<?xml version="1.0" standalone="no"?>
<!DOCTYPE svg PUBLIC "-//W3C//DTD SVG 20010904//EN"
 "http://www.w3.org/TR/2001/REC-SVG-20010904/DTD/svg10.dtd">
<svg version="1.0" xmlns="http://www.w3.org/2000/svg"
 width="512.000000pt" height="512.000000pt" viewBox="0 0 512.000000 512.000000"
 preserveAspectRatio="xMidYMid meet">
<metadata>
Created by potrace 1.11, written by Peter Selinger 2001-2013
</metadata>
<g transform="translate(0.000000,512.000000) scale(0.100000,-0.100000)"
fill="#000000" stroke="none">
<path d="M0 5111 c0 -5 10 -11 22 -13 18 -2 24 -14 34 -68 7 -36 27 -96 45
-135 93 -207 113 -245 131 -245 16 0 18 10 18 95 l0 95 60 0 c60 0 60 0 60
-29 0 -26 4 -30 33 -33 26 -2 33 -8 35 -28 2 -14 8 -42 13 -62 9 -36 11 -37
62 -40 51 -3 52 -4 55 -35 l3 -33 60 0 c59 0 59 0 59 -30 0 -28 3 -30 35 -30
32 0 35 -2 35 -30 0 -30 1 -30 53 -30 28 0 57 -4 62 -8 6 -4 16 -36 23 -70 7
-35 21 -80 30 -99 l17 -36 5 39 5 39 59 0 59 0 13 -65 c13 -64 24 -92 129
-320 29 -63 62 -137 73 -165 25 -64 58 -145 87 -215 32 -77 60 -148 79 -197 9
-24 23 -62 32 -85 9 -24 22 -59 29 -78 30 -81 49 -130 82 -205 43 -98 199
-411 259 -520 24 -44 48 -98 54 -120 18 -66 32 -95 46 -95 17 0 26 32 18 67
-8 33 -71 161 -87 178 -22 23 -238 479 -281 593 -9 23 -23 61 -32 85 -17 44
-35 93 -61 162 -17 46 -45 115 -78 195 -23 54 -45 111 -86 213 -12 28 -45 104
-74 167 -29 63 -65 142 -80 175 -15 33 -34 83 -41 110 -15 55 -18 153 -6 173
6 9 33 12 97 10 l88 -3 13 -65 c13 -64 24 -92 129 -320 29 -63 62 -139 74
-167 41 -102 63 -159 86 -213 33 -80 61 -149 78 -195 8 -22 22 -59 31 -82 9
-24 23 -62 32 -85 9 -24 23 -61 31 -83 41 -109 225 -494 293 -610 16 -27 32
-54 34 -60 2 -6 9 -3 15 5 36 52 36 53 93 123 13 15 34 41 48 57 14 16 36 43
50 60 40 49 119 141 180 210 19 21 46 53 60 70 14 17 41 49 60 70 19 21 46 53
60 70 14 17 41 49 60 70 37 42 80 92 130 150 50 58 93 108 130 150 19 21 46
53 60 70 14 17 36 44 50 60 14 16 36 43 50 60 14 17 36 44 50 60 14 16 36 43
50 60 14 17 36 44 50 60 14 16 36 43 50 60 14 17 36 44 50 60 14 16 36 43 50
60 14 17 36 44 50 59 14 16 32 39 40 51 8 12 26 35 40 51 14 15 36 42 50 59
14 17 36 44 50 60 14 16 36 43 50 60 14 17 40 46 59 65 47 47 49 49 86 86 17
19 42 41 55 49 12 8 46 38 75 65 76 72 148 137 181 163 16 12 39 30 51 40 11
9 31 24 44 32 12 8 32 26 43 38 12 13 35 31 51 39 17 9 36 24 42 33 7 10 23
20 35 24 13 3 31 17 41 31 l18 25 -2271 0 c-1393 0 -2270 -4 -2270 -9z"/>
<path d="M5090 5100 c-12 -11 -31 -22 -41 -25 -11 -4 -19 -10 -19 -14 0 -4
-11 -13 -25 -19 -14 -7 -31 -17 -38 -22 -45 -38 -61 -50 -67 -50 -7 0 -23 -13
-82 -66 -16 -13 -28 -30 -28 -38 0 -12 -28 -45 -81 -93 -13 -12 -28 -27 -34
-33 -21 -23 -58 -50 -76 -55 -11 -4 -19 -10 -19 -15 0 -5 -8 -11 -19 -15 -16
-5 -28 -13 -77 -53 -5 -5 -21 -15 -33 -22 -13 -6 -35 -22 -50 -35 -57 -51 -74
-65 -80 -65 -3 0 -19 -11 -35 -25 -16 -14 -32 -25 -35 -25 -3 0 -31 -23 -61
-50 -76 -69 -91 -84 -120 -120 -14 -17 -37 -45 -52 -61 -30 -34 -35 -45 -15
-33 18 12 32 24 91 79 87 81 151 138 182 163 16 12 39 30 51 40 11 9 31 24 44
32 12 8 32 26 43 38 12 13 35 31 51 39 17 9 36 24 43 34 7 11 19 19 26 19 7 0
29 15 48 33 48 43 60 52 89 67 13 7 28 19 32 26 4 8 15 14 22 14 8 0 15 4 15
9 0 5 14 14 30 21 17 7 30 16 30 20 0 4 12 13 28 19 15 6 47 34 71 61 25 28
50 50 56 50 7 0 17 12 24 26 11 24 15 26 76 22 l65 -3 0 73 c0 39 -2 72 -3 72
-2 0 -14 -9 -27 -20z"/>
<path d="M4296 4130 c-86 -76 -111 -206 -59 -310 35 -70 128 -161 205 -199 75
-38 157 -42 216 -12 47 24 104 84 130 137 l21 41 -124 106 c-69 59 -126 107
-129 107 -2 0 -28 -27 -56 -60 -52 -60 -52 -61 -34 -81 32 -36 53 -43 74 -24
18 16 22 15 75 -30 30 -26 55 -51 55 -56 0 -5 -15 -18 -32 -29 -24 -15 -42
-19 -68 -14 -83 14 -184 95 -226 180 -24 50 -26 59 -15 94 6 22 28 55 47 74
l36 35 -29 35 c-15 20 -33 36 -40 36 -7 0 -28 -14 -47 -30z"/>
<path d="M4023 3765 c-17 -7 -50 -33 -73 -57 -40 -40 -100 -120 -100 -132 0
-3 96 -87 213 -187 116 -100 221 -190 232 -200 21 -18 22 -18 60 28 l39 46
-59 51 c-130 111 -130 112 -116 130 23 27 61 18 154 -35 48 -28 94 -49 101
-46 7 3 27 23 44 45 l32 40 -93 52 c-68 39 -105 54 -144 57 l-53 5 0 42 c0 53
-34 110 -90 147 -48 32 -95 37 -147 14z m104 -139 c30 -27 37 -41 37 -70 0
-20 -7 -43 -16 -53 -16 -15 -22 -12 -88 47 l-71 63 22 23 c32 34 72 31 116
-10z"/>
<path d="M3696 3410 c-78 -51 -98 -153 -49 -251 38 -77 145 -179 234 -223 122
-61 216 -47 276 43 30 45 31 118 1 180 -31 66 -169 199 -247 239 -78 39 -167
45 -215 12z m142 -112 c61 -31 219 -184 228 -222 16 -65 -37 -83 -118 -39 -65
35 -201 167 -216 210 -8 24 -7 36 4 52 19 27 46 27 102 -1z"/>
<path d="M3302 2957 c-18 -18 -32 -38 -32 -44 0 -10 167 -153 260 -223 70 -52
69 -53 -5 -24 -39 14 -136 49 -216 77 l-146 50 -36 -39 c-20 -21 -36 -41 -36
-44 0 -4 265 -232 438 -377 l38 -32 33 41 34 41 -35 30 c-28 24 -142 119 -259
216 l-25 21 50 -21 c28 -11 122 -45 210 -75 l160 -55 32 38 c18 21 33 41 33
45 0 4 -96 89 -212 189 -117 100 -222 190 -234 201 -20 18 -21 17 -52 -15z"/>
<path d="M5100 2919 c-8 -12 -25 -31 -38 -43 -46 -44 -68 -66 -92 -96 -14 -17
-36 -44 -50 -60 -14 -16 -36 -43 -50 -60 -14 -17 -36 -44 -50 -59 -14 -16 -32
-39 -40 -51 -8 -12 -26 -35 -40 -51 -14 -15 -36 -42 -50 -59 -14 -17 -36 -44
-50 -60 -14 -16 -36 -43 -50 -60 -14 -17 -36 -44 -50 -60 -14 -16 -36 -43 -50
-60 -14 -17 -36 -44 -50 -60 -14 -16 -36 -43 -50 -60 -14 -17 -36 -44 -50 -60
-14 -16 -36 -43 -50 -60 -14 -17 -41 -49 -60 -70 -37 -42 -80 -92 -130 -150
-50 -58 -93 -108 -130 -150 -19 -21 -46 -53 -60 -70 -14 -17 -41 -49 -60 -70
-19 -21 -46 -53 -60 -70 -14 -17 -41 -49 -60 -70 -61 -69 -140 -161 -180 -210
-14 -17 -36 -44 -50 -60 -24 -28 -48 -57 -88 -107 -9 -11 -24 -31 -32 -43 -8
-12 -22 -30 -30 -40 -8 -10 -22 -28 -30 -40 -8 -12 -22 -30 -30 -40 -8 -10
-22 -28 -30 -40 -8 -12 -22 -30 -30 -40 -8 -10 -22 -28 -30 -40 -8 -13 -25
-33 -36 -45 -12 -12 -29 -35 -37 -51 -8 -16 -30 -43 -48 -61 -42 -40 -53 -53
-69 -84 -7 -13 -23 -35 -35 -49 -13 -14 -41 -45 -62 -70 -39 -46 -227 -235
-257 -258 -9 -7 -16 -17 -16 -22 0 -6 454 -10 1240 -10 l1240 0 0 1470 c0 809
-1 1470 -3 1470 -1 0 -9 -10 -17 -21z"/>
<path d="M3824 2832 c-6 -4 -16 -17 -23 -29 -39 -75 77 -152 128 -87 28 36 26
60 -8 95 -29 28 -72 38 -97 21z"/>
<path d="M2977 2585 l-38 -45 28 -24 c15 -13 123 -105 238 -204 l210 -181 37
42 c20 23 37 45 38 48 0 6 -466 409 -472 409 -2 -1 -20 -21 -41 -45z"/>
<path d="M1 1253 l-1 -1253 430 0 c237 0 430 2 430 4 0 14 -44 291 -59 376
-11 58 -23 130 -26 160 -11 104 -28 155 -92 283 -75 152 -80 164 -133 377 -22
91 -50 190 -62 220 -11 30 -27 75 -35 100 -17 55 -95 220 -103 220 -6 0 -169
331 -223 455 -33 75 -47 110 -84 210 -44 117 -42 174 -42 -1152z"/>
<path d="M2746 2314 c-21 -25 -37 -46 -35 -48 8 -5 435 -370 454 -387 22 -20
15 -27 183 172 l22 27 -40 32 -39 31 -29 -33 c-16 -18 -40 -45 -53 -60 l-24
-28 -197 170 c-109 94 -199 170 -200 170 -2 -1 -20 -21 -42 -46z"/>
<path d="M2555 2089 c-75 -86 -85 -102 -72 -112 9 -7 114 -97 235 -201 121
-103 224 -187 229 -186 4 1 47 48 95 104 l88 101 -38 32 c-20 18 -40 33 -43
33 -3 0 -28 -26 -55 -59 l-50 -58 -61 51 c-34 28 -62 54 -62 58 -1 4 17 28 39
53 22 25 40 49 40 53 0 10 -53 62 -64 62 -5 0 -30 -23 -55 -50 l-46 -51 -53
48 -53 48 45 52 c26 28 46 55 46 60 0 8 -64 63 -73 63 -3 0 -44 -45 -92 -101z"/>
<path d="M2355 1823 c-40 -20 -100 -78 -136 -130 -16 -23 -29 -44 -29 -47 0
-10 455 -396 467 -396 6 0 31 24 56 53 127 149 118 266 -32 410 -115 112 -242
154 -326 110z m132 -118 c71 -36 176 -140 198 -197 15 -40 15 -50 3 -75 -7
-15 -19 -28 -25 -28 -22 0 -324 266 -321 283 4 19 44 42 74 42 11 0 43 -11 71
-25z"/>
<path d="M2072 1527 c-18 -18 -32 -38 -32 -44 0 -10 167 -153 260 -223 70 -52
69 -53 -5 -24 -39 14 -136 49 -216 77 l-146 50 -36 -39 c-20 -21 -36 -41 -36
-44 0 -4 265 -232 438 -377 l38 -32 33 41 34 41 -35 30 c-28 24 -142 119 -259
216 l-25 21 50 -21 c28 -11 122 -45 210 -75 l160 -55 32 38 c18 21 33 41 33
45 0 4 -96 89 -212 189 -117 100 -222 190 -234 201 -20 18 -21 17 -52 -15z"/>
<path d="M1715 1099 c-75 -86 -85 -102 -72 -112 9 -7 114 -97 235 -201 121
-103 224 -187 229 -186 4 1 47 48 95 104 l88 101 -38 32 c-20 18 -40 33 -43
33 -3 0 -28 -26 -55 -59 l-50 -58 -61 51 c-34 28 -62 54 -62 58 -1 4 17 28 39
53 22 25 40 49 40 53 0 10 -53 62 -64 62 -5 0 -30 -23 -55 -50 l-46 -51 -53
48 -53 48 45 52 c26 28 46 55 46 60 0 8 -64 63 -73 63 -3 0 -44 -45 -92 -101z"/>
<path d="M1542 904 l-40 -47 101 -121 c56 -66 126 -145 155 -177 48 -52 70
-86 39 -60 -8 6 -99 63 -203 126 l-189 115 -42 -47 c-24 -26 -43 -50 -43 -53
1 -12 562 -301 570 -294 4 5 24 28 45 51 l37 42 -187 253 c-102 139 -190 254
-195 256 -4 2 -26 -18 -48 -44z"/>
</g>
</svg>
